# This file uses centimeters as units for non-parametric coordinates.

mtllib arbol_4.mtl
g default
v 0.623866 2.200238 -0.000829
v 0.986023 2.815161 -0.000829
v 0.307462 2.800692 -0.935001
v 0.790475 3.186261 -0.985736
v 0.204492 2.191296 -0.578179
v 0.307462 2.800692 0.933344
v 0.204492 2.191296 0.576522
v 0.790475 3.186261 0.576522
v -0.986023 3.148379 -0.000829
v -0.307461 3.162848 0.933344
v -0.790474 2.777278 0.576522
v -0.790474 2.777278 -0.578179
v -0.474070 2.176826 0.355994
v -0.474070 2.176826 -0.357651
v -0.307462 3.712246 -1.134997
v 0.307462 3.350089 -1.134997
v -0.204491 4.321642 -0.778175
v 0.474070 4.336112 -0.557647
v 0.790474 3.735659 -0.778175
v 0.986023 3.364559 -0.200824
v 0.474070 4.336112 0.155998
v 0.790474 3.735659 0.376526
v -0.204491 4.321642 0.376526
v -0.307462 3.712246 0.733348
v 0.307462 3.629877 1.025136
v -0.910672 3.823992 0.376526
v -0.986023 3.697776 -0.200824
v -0.623865 4.312699 -0.200824
v -0.790474 3.326676 -0.778175
v -0.474070 2.176826 -0.357651
v 0.204492 2.191296 -0.578179
v -0.790474 2.777278 -0.578179
v -0.307461 3.162848 -1.124860
v 0.307462 2.800692 -0.935001
v -0.307462 3.712246 -1.134997
v 0.307462 3.350089 -1.134997
v -0.790474 3.326676 -0.778175
v 0.225981 0.538012 -0.264386
v 0.000000 0.538012 -0.357990
v -0.225981 0.538012 -0.264386
v -0.319585 0.538012 -0.038405
v -0.225981 0.538012 0.187576
v 0.000000 0.538012 0.281180
v 0.225981 0.538012 0.187576
v 0.319585 0.538012 -0.038405
v 0.193954 2.349207 -0.174710
v 0.000000 2.349207 -0.255048
v -0.193954 2.349207 -0.174710
v -0.274292 2.349207 0.019244
v -0.193954 2.349207 0.213198
v 0.000000 2.349207 0.293536
v 0.193954 2.349207 0.213198
v 0.274292 2.349207 0.019244
v 0.000000 0.538012 -0.038405
v 0.000000 2.349207 -0.038405
v 0.000000 1.351284 0.279001
v -0.207832 1.351284 0.192914
v -0.293919 1.351284 -0.014918
v -0.207832 1.351284 -0.222750
v 0.000000 1.351284 -0.308837
v 0.207832 1.351284 -0.222750
v 0.293919 1.351284 -0.014918
v 0.207832 1.351284 0.192914
v 0.000000 1.519419 0.258382
v -0.199292 1.519419 0.175833
v -0.281841 1.519419 -0.023459
v -0.199292 1.519419 -0.222750
v 0.000000 1.519419 -0.305300
v 0.199292 1.519419 -0.222750
v 0.281841 1.519419 -0.023459
v 0.199292 1.519419 0.175833
v 0.201427 1.628006 -0.239832
v 0.284860 1.628006 -0.038405
v 0.201427 1.628006 0.163022
v 0.000000 1.628006 0.246455
v -0.201427 1.628006 0.163022
v -0.284860 1.628006 -0.038405
v -0.201427 1.628006 -0.239832
v 0.000000 1.628006 -0.323265
v 0.197156 1.848683 -0.222750
v 0.278821 1.848683 -0.025594
v 0.197156 1.848683 0.171562
v 0.000000 1.848683 0.253227
v -0.197156 1.848683 0.171562
v -0.278821 1.848683 -0.025594
v -0.197156 1.848683 -0.222750
v 0.000000 1.848683 -0.304415
v -0.000000 1.504799 0.633254
v -0.093958 1.504799 0.611424
v -0.000000 1.547436 0.628025
v -0.091792 1.547436 0.607092
v 0.093958 1.504799 0.611424
v 0.091792 1.547436 0.607092
v -0.127751 1.881423 -0.588004
v -0.000000 1.881423 -0.619253
v -0.126152 1.964074 -0.581606
v -0.000000 1.964074 -0.612193
v 0.127751 1.881423 -0.588004
v 0.126152 1.964074 -0.581606
vt 0.099106 0.250000
vt 0.221609 0.250000
vt 0.259464 0.368034
vt 0.160357 0.440983
vt 0.061251 0.368034
vt 0.037855 0.440983
vt 0.198213 0.559017
vt 0.099106 0.631966
vt 0.000000 0.559017
vt 0.320715 0.559017
vt 0.358570 0.677051
vt 0.259464 0.750000
vt 0.160357 0.677051
vt 0.358570 0.440983
vt 0.481072 0.440983
vt 0.518928 0.559017
vt 0.419821 0.631966
vt 0.297319 0.250000
vt 0.419821 0.250000
vt 0.457677 0.368034
vt 0.740536 0.250000
vt 0.839643 0.322949
vt 0.801787 0.440983
vt 0.679285 0.440983
vt 0.641430 0.322949
vt 0.580179 0.368034
vt 0.641430 0.559017
vt 0.740536 0.631966
vt 0.702681 0.750000
vt 0.580179 0.750000
vt 0.542323 0.631966
vt 0.839643 0.559017
vt 0.938749 0.631966
vt 0.900894 0.750000
vt 0.778391 0.750000
vt 0.900894 0.368034
vt 1.000000 0.440983
vt 0.962145 0.559017
vt 0.962145 0.559017
vt 0.839643 0.559017
vt 1.000000 0.440983
vt 0.160357 0.440983
vt 0.061251 0.368034
vt 0.259464 0.368034
vt 0.457677 0.368034
vt 0.358570 0.440983
vt 0.641430 0.559017
vt 0.518928 0.559017
vt 0.481072 0.440983
vt 0.740536 0.631966
vt 0.900894 0.750000
vt 0.778391 0.750000
vt 0.740536 0.631966
vt 0.938749 0.631966
vt 0.839643 0.559017
vt 0.962145 0.559017
vt 0.962145 0.559017
vt 0.740536 0.631966
vt 0.375000 0.312500
vt 0.406250 0.312500
vt 0.406250 0.481306
vt 0.375000 0.481306
vt 0.437500 0.312500
vt 0.437500 0.481306
vt 0.468750 0.312500
vt 0.468750 0.481306
vt 0.500000 0.312500
vt 0.500000 0.481306
vt 0.531250 0.312500
vt 0.531250 0.481306
vt 0.562500 0.312500
vt 0.562500 0.481306
vt 0.593750 0.312500
vt 0.593750 0.481306
vt 0.625000 0.312500
vt 0.625000 0.481306
vt 0.500000 0.000000
vt 0.610485 0.045765
vt 0.500000 0.150000
vt 0.389515 0.045765
vt 0.343750 0.156250
vt 0.389515 0.266735
vt 0.500000 0.312500
vt 0.610485 0.266735
vt 0.656250 0.156250
vt 0.610485 0.954235
vt 0.500000 1.000000
vt 0.500000 0.837500
vt 0.389515 0.954235
vt 0.343750 0.843750
vt 0.389515 0.733265
vt 0.500000 0.687500
vt 0.610485 0.733265
vt 0.656250 0.843750
vt 0.500000 0.481306
vt 0.531250 0.481306
vt 0.531250 0.516205
vt 0.500000 0.516205
vt 0.500000 0.516205
vt 0.468750 0.516205
vt 0.437500 0.516205
vt 0.406250 0.516205
vt 0.375000 0.516205
vt 0.625000 0.516205
vt 0.593750 0.516205
vt 0.562500 0.516205
vt 0.562500 0.481306
vt 0.562500 0.516205
vt 0.531250 0.516205
vt 0.531250 0.538744
vt 0.500000 0.538744
vt 0.468750 0.538744
vt 0.437500 0.538744
vt 0.406250 0.538744
vt 0.375000 0.538744
vt 0.625000 0.538744
vt 0.593750 0.538744
vt 0.562500 0.538744
vt 0.625000 0.584549
vt 0.593750 0.584549
vt 0.562500 0.584549
vt 0.531250 0.584549
vt 0.500000 0.584549
vt 0.468750 0.584549
vt 0.437500 0.584549
vt 0.406250 0.538744
vt 0.437500 0.538744
vt 0.437500 0.584549
vt 0.406250 0.584549
vt 0.375000 0.538744
vt 0.375000 0.584549
vt 0.625000 0.688440
vt 0.593750 0.688440
vt 0.562500 0.688440
vt 0.531250 0.688440
vt 0.500000 0.688440
vt 0.468750 0.688440
vt 0.437500 0.688440
vt 0.406250 0.584549
vt 0.406250 0.688440
vt 0.375000 0.584549
vt 0.375000 0.688440
vn 0.593590 -0.804768 -0.000000
vn 0.412344 -0.864932 -0.286120
vn 0.681886 -0.545900 -0.486851
vn 0.681886 -0.545900 -0.486851
vn 0.822220 -0.568912 0.017135
vn 0.732977 -0.431685 0.525731
vn 0.274014 -0.520008 0.809017
vn 0.204492 -0.790475 0.577350
vn -0.474070 -0.804944 0.356822
vn -0.507476 -0.861666 0.000000
vn -0.266796 -0.453005 0.850651
vn -0.676826 -0.540284 0.500000
vn -0.884690 -0.466181 0.000000
vn -0.884690 -0.466181 0.000000
vn -0.249638 -0.540309 -0.803584
vn -0.249638 -0.540309 -0.803584
vn -0.249638 -0.540309 -0.803584
vn -0.249638 -0.540309 -0.803584
vn -0.249638 -0.540309 -0.803584
vn 0.266796 0.453005 -0.850651
vn -0.274015 0.520008 -0.809017
vn -0.204491 0.790475 -0.577350
vn 0.474070 0.804944 -0.356822
vn 0.676826 0.540284 -0.500000
vn 0.884689 0.466181 0.000000
vn 0.435924 0.856835 0.275325
vn 0.668134 0.643582 0.373363
vn -0.119296 0.897619 0.424322
vn -0.103105 0.732574 0.672834
vn 0.216734 0.669177 0.710794
vn -0.786741 0.577825 -0.217156
vn -0.617001 0.653776 0.438048
vn -0.533636 0.841481 -0.084514
vn -0.732977 0.431685 -0.525731
vn 0.040970 -0.187677 -0.981376
vn 0.040970 -0.187677 -0.981376
vn 0.040970 -0.187677 -0.981376
vn 0.040970 -0.187677 -0.981376
vn 0.297273 0.006574 -0.954770
vn 0.297273 0.006574 -0.954770
vn 0.297273 0.006574 -0.954770
vn 0.297273 0.006574 -0.954770
vn 0.970249 0.001667 -0.242102
vn 0.970249 0.001667 -0.242102
vn 0.970249 0.001667 -0.242102
vn 0.970249 0.001667 -0.242102
vn 0.959889 0.095909 0.263468
vn 0.959889 0.095909 0.263468
vn 0.959889 0.095909 0.263468
vn 0.959889 0.095909 0.263468
vn -0.203872 0.076605 0.975996
vn -0.203872 0.076605 0.975996
vn -0.203872 0.076605 0.975996
vn -0.203872 0.076605 0.975996
vn 0.706328 0.055391 0.705714
vn 0.706328 0.055391 0.705714
vn 0.706328 0.055391 0.705714
vn 0.706328 0.055391 0.705714
vn -0.974221 -0.016990 0.224955
vn -0.974221 -0.016990 0.224955
vn -0.974221 -0.016990 0.224955
vn -0.974221 -0.016990 0.224955
vn -0.569803 0.159134 0.806226
vn -0.569803 0.159134 0.806226
vn -0.569803 0.159134 0.806226
vn -0.569803 0.159134 0.806227
vn -0.609441 -0.148921 -0.778719
vn -0.609441 -0.148921 -0.778719
vn -0.609441 -0.148921 -0.778719
vn -0.609441 -0.148921 -0.778719
vn -0.959889 -0.095909 -0.263467
vn -0.959889 -0.095909 -0.263467
vn -0.959889 -0.095909 -0.263467
vn -0.959889 -0.095909 -0.263467
vn 0.000000 0.000000 0.000000
vn 0.000000 0.000000 0.000000
vn 0.000000 0.000000 0.000000
vn 0.000000 0.000000 0.000000
vn 0.000000 0.000000 0.000000
vn 0.000000 0.000000 0.000000
vn 0.000000 0.000000 0.000000
vn 0.000000 0.000000 0.000000
vn 0.000000 0.000000 0.000000
vn 0.000000 0.000000 0.000000
vn 0.000000 0.000000 0.000000
vn 0.000000 0.000000 0.000000
vn 0.000000 0.000000 0.000000
vn 0.000000 0.000000 0.000000
vn 0.000000 0.000000 0.000000
vn 0.000000 0.000000 0.000000
vn 0.000000 0.000000 0.000000
vn 0.000000 0.000000 0.000000
vn 0.000000 0.000000 0.000000
vn 0.000000 0.000000 0.000000
vn 0.000000 0.000000 0.000000
vn 0.000000 0.000000 0.000000
vn 0.000000 0.000000 0.000000
vn 0.000000 0.000000 0.000000
vn 0.000000 0.000000 0.000000
vn 0.000000 0.000000 0.000000
vn 0.000000 0.000000 0.000000
vn 0.000000 0.000000 0.000000
vn 0.382088 0.055751 -0.922443
vn 0.382088 0.055751 -0.922443
vn 0.382206 0.049958 -0.922726
vn 0.382205 0.050012 -0.922723
vn -0.382088 0.055751 -0.922443
vn -0.382088 0.055751 -0.922443
vn -0.382205 0.050012 -0.922723
vn -0.382206 0.049958 -0.922726
vn -0.923134 0.040176 -0.382374
vn -0.923134 0.040176 -0.382374
vn -0.923094 0.041230 -0.382358
vn -0.923093 0.041255 -0.382358
vn -0.923728 0.018102 0.382621
vn -0.923728 0.018102 0.382621
vn -0.923498 0.028741 0.382525
vn -0.923491 0.028983 0.382523
vn -0.382682 0.002476 0.923877
vn -0.382682 0.002476 0.923877
vn -0.382682 0.002476 0.923877
vn -0.382682 0.002476 0.923877
vn 0.382682 0.002476 0.923877
vn 0.382682 0.002476 0.923877
vn 0.382682 0.002476 0.923877
vn 0.382682 0.002476 0.923877
vn 0.923728 0.018102 0.382621
vn 0.923728 0.018102 0.382621
vn 0.923491 0.028983 0.382523
vn 0.923498 0.028741 0.382525
vn 0.923134 0.040176 -0.382375
vn 0.923134 0.040176 -0.382375
vn 0.923093 0.041255 -0.382358
vn 0.923094 0.041230 -0.382358
vn 0.000000 -1.000000 0.000000
vn 0.000000 -1.000000 0.000000
vn 0.000000 -1.000000 0.000000
vn 0.000000 -1.000000 0.000000
vn 0.000000 -1.000000 0.000000
vn 0.000000 -1.000000 0.000000
vn 0.000000 -1.000000 0.000000
vn 0.000000 -1.000000 0.000000
vn 0.000000 -1.000000 0.000000
vn 0.000000 1.000000 0.000000
vn 0.000000 1.000000 -0.000000
vn 0.000000 1.000000 -0.000000
vn 0.000000 1.000000 -0.000000
vn 0.000000 1.000000 0.000000
vn 0.000000 1.000000 0.000000
vn 0.000000 1.000000 -0.000000
vn 0.000000 1.000000 -0.000000
vn 0.000000 1.000000 0.000000
vn -0.222885 0.114201 0.968132
vn -0.222885 0.114201 0.968132
vn -0.222885 0.114201 0.968132
vn -0.222885 0.114201 0.968132
vn -0.921956 0.064501 0.381887
vn -0.922132 0.061475 0.381960
vn -0.923878 0.001834 -0.382683
vn -0.923870 -0.004643 -0.382679
vn -0.382293 -0.045187 -0.922936
vn -0.382227 -0.048854 -0.922776
vn 0.382226 -0.048854 -0.922776
vn 0.382293 -0.045187 -0.922936
vn 0.923870 -0.004643 -0.382679
vn 0.923878 0.001834 -0.382683
vn 0.922132 0.061475 0.381959
vn 0.921956 0.064501 0.381886
vn 0.222885 0.114200 0.968133
vn 0.222885 0.114200 0.968133
vn 0.222885 0.114200 0.968133
vn 0.222885 0.114200 0.968133
vn -0.380728 0.100954 0.919160
vn -0.380728 0.100954 0.919160
vn -0.382639 0.015158 0.923774
vn -0.382646 0.014047 0.923788
vn -0.923821 0.011217 0.382659
vn -0.923826 0.010721 0.382661
vn -0.923870 0.004607 -0.382679
vn -0.923856 0.007206 -0.382673
vn -0.378290 -0.151099 -0.913272
vn -0.378290 -0.151099 -0.913272
vn 0.378290 -0.151099 -0.913272
vn 0.378290 -0.151099 -0.913272
vn 0.923856 0.007206 -0.382674
vn 0.923870 0.004607 -0.382679
vn 0.923827 0.010722 0.382661
vn 0.923822 0.011217 0.382659
vn 0.380728 0.100954 0.919160
vn 0.380728 0.100954 0.919160
vn 0.382645 0.014047 0.923788
vn 0.382639 0.015158 0.923774
vn 0.922976 0.044206 -0.382309
vn 0.922984 0.044026 -0.382312
vn 0.923756 -0.016325 0.382632
vn 0.923740 -0.017402 0.382625
vn 0.382004 -0.059575 0.922239
vn 0.381987 -0.060279 0.922200
vn -0.381988 -0.060279 0.922200
vn -0.382004 -0.059575 0.922239
vn -0.923740 -0.017402 0.382625
vn -0.923757 -0.016325 0.382632
vn -0.922984 0.044026 -0.382312
vn -0.922976 0.044206 -0.382309
vn -0.235842 0.081120 -0.968400
vn -0.235842 0.081120 -0.968400
vn -0.235842 0.081120 -0.968400
vn -0.235842 0.081120 -0.968400
vn 0.235842 0.081120 -0.968400
vn 0.235842 0.081120 -0.968400
vn 0.235842 0.081120 -0.968400
vn 0.235842 0.081120 -0.968400
vn 0.923041 0.042603 -0.382336
vn 0.923041 0.042603 -0.382336
vn 0.923569 -0.025913 0.382555
vn 0.923569 -0.025913 0.382555
vn 0.381628 -0.074198 0.921333
vn 0.381628 -0.074198 0.921333
vn -0.381629 -0.074198 0.921333
vn -0.381629 -0.074198 0.921333
vn -0.923569 -0.025913 0.382555
vn -0.923569 -0.025913 0.382555
vn -0.923041 0.042603 -0.382336
vn -0.923041 0.042603 -0.382336
vn -0.381105 0.090748 -0.920067
vn -0.381105 0.090748 -0.920067
vn -0.381105 0.090748 -0.920067
vn -0.381105 0.090748 -0.920067
vn 0.381105 0.090748 -0.920067
vn 0.381105 0.090748 -0.920067
vn 0.381105 0.090748 -0.920067
vn 0.381105 0.090748 -0.920067
vn -0.137003 -0.913479 0.383128
vn -0.000000 -0.922174 0.386775
vn -0.000000 -0.922174 0.386775
vn -0.137003 -0.913479 0.383128
vn 0.000000 0.997312 -0.073271
vn 0.026040 0.996974 -0.073246
vn 0.026040 0.996974 -0.073246
vn 0.000000 0.997312 -0.073271
vn -0.968808 0.073262 0.236735
vn -0.968808 0.073262 0.236735
vn -0.968808 0.073262 0.236735
vn -0.968808 0.073262 0.236735
vn 0.137003 -0.913479 0.383127
vn 0.137003 -0.913479 0.383127
vn 0.968808 0.073262 0.236735
vn 0.968808 0.073262 0.236735
vn 0.968808 0.073262 0.236735
vn 0.968808 0.073262 0.236735
vn -0.026040 0.996974 -0.073246
vn -0.026040 0.996974 -0.073246
vn 0.000000 -0.773470 -0.633833
vn -0.215627 -0.755275 -0.618922
vn -0.215627 -0.755275 -0.618922
vn -0.000000 -0.773470 -0.633832
vn -0.982421 0.033229 -0.183699
vn -0.982421 0.033229 -0.183699
vn -0.982421 0.033229 -0.183699
vn -0.982421 0.033229 -0.183699
vn 0.116650 0.934618 0.335979
vn -0.000000 0.941042 0.338289
vn 0.000000 0.941042 0.338289
vn 0.116650 0.934618 0.335979
vn 0.215627 -0.755275 -0.618922
vn 0.215627 -0.755275 -0.618922
vn -0.116650 0.934618 0.335979
vn -0.116650 0.934618 0.335979
vn 0.982421 0.033229 -0.183700
vn 0.982421 0.033229 -0.183700
vn 0.982421 0.033229 -0.183700
vn 0.982421 0.033229 -0.183700
s 1
g arbol4
usemtl blinn4SG
f 1/7/1 5/8/2 3/9/3 4/6/4 2/4/5
f 8/3/6 6/14/7 7/10/8 1/7/1 2/4/5
f 1/7/1 7/10/8 13/11/9 14/12/10 5/13/2
f 6/14/7 10/15/11 11/16/12 13/17/9 7/10/8
f 13/30/9 11/31/12 9/27/13 12/28/14 14/29/10
s off
f 31/51/15 30/52/16 32/53/17 33/32/18 34/54/19
s 2
f 16/39/20 15/40/21 17/23/22 18/36/23 19/41/24
f 20/42/25 19/43/24 18/1/23 21/2/26 22/44/27
f 22/44/27 21/18/26 23/19/28 24/45/29 25/46/30
f 27/47/31 26/48/32 24/49/29 23/26/28 28/24/33
f 28/24/33 23/25/28 21/21/26 18/22/23 17/23/22
f 28/24/33 17/23/22 15/40/21 29/50/34 27/47/31
s off
f 34/57/35 33/32/36 35/55/37 36/56/38
f 4/37/39 3/38/40 16/39/41 19/41/42
f 2/4/43 4/5/44 19/43/45 20/42/46
f 8/3/47 2/4/48 20/42/49 22/44/50
f 10/20/51 6/14/52 25/46/53 24/45/54
f 6/14/55 8/3/56 22/44/57 25/46/58
f 9/27/59 11/16/60 26/48/61 27/47/62
f 11/16/63 10/15/64 24/49/65 26/48/66
f 33/32/67 32/53/68 37/58/69 35/55/70
f 12/28/71 9/27/72 27/47/73 29/50/74
f 5/34/75 14/35/76 30/52/77 31/51/78
f 14/35/79 12/28/80 32/53/81 30/52/82
f 3/33/83 5/34/84 31/51/85 34/54/86
f 15/40/87 16/39/88 36/56/89 35/55/90
f 16/39/91 3/38/92 34/57/93 36/56/94
f 12/28/95 29/50/96 37/58/97 32/53/98
f 29/50/99 15/40/100 35/55/101 37/58/102
s 3
usemtl blinn1SG
f 38/59/103 39/60/104 60/61/105 61/62/106
s 4
f 39/60/107 40/63/108 59/64/109 60/61/110
s 5
f 40/63/111 41/65/112 58/66/113 59/64/114
s 6
f 41/65/115 42/67/116 57/68/117 58/66/118
s off
f 42/67/119 43/69/120 56/70/121 57/68/122
f 43/69/123 44/71/124 63/72/125 56/70/126
s 7
f 44/71/127 45/73/128 62/74/129 63/72/130
s 8
f 45/73/131 38/75/132 61/76/133 62/74/134
s 9
f 39/77/135 38/78/136 54/79/137
f 40/80/138 39/77/135 54/79/137
f 41/81/139 40/80/138 54/79/137
f 42/82/140 41/81/139 54/79/137
f 43/83/141 42/82/140 54/79/137
f 44/84/142 43/83/141 54/79/137
f 45/85/143 44/84/142 54/79/137
f 38/78/136 45/85/143 54/79/137
s 10
f 46/86/144 47/87/145 55/88/146
f 47/87/145 48/89/147 55/88/146
f 48/89/147 49/90/148 55/88/146
f 49/90/148 50/91/149 55/88/146
f 50/91/149 51/92/150 55/88/146
f 51/92/150 52/93/151 55/88/146
f 52/93/151 53/94/152 55/88/146
f 53/94/152 46/86/144 55/88/146
s off
f 89/95/153 88/96/154 90/97/155 91/98/156
s 6
f 58/66/118 57/68/117 65/99/157 66/100/158
s 5
f 59/64/114 58/66/113 66/100/159 67/101/160
s 4
f 60/61/110 59/64/109 67/101/161 68/102/162
s 3
f 61/62/106 60/61/105 68/102/163 69/103/164
s 8
f 62/74/134 61/76/133 69/104/165 70/105/166
s 7
f 63/72/130 62/74/129 70/105/167 71/106/168
s off
f 88/96/169 92/107/170 93/108/171 90/97/172
s 11
f 65/99/173 64/109/174 75/110/175 76/111/176
s 6
f 66/100/158 65/99/157 76/111/177 77/112/178
s 5
f 67/101/160 66/100/159 77/112/179 78/113/180
s 4
f 68/102/162 67/101/161 78/113/181 79/114/182
s 3
f 69/103/164 68/102/163 79/114/183 72/115/184
s 8
f 70/105/166 69/104/165 72/116/185 73/117/186
s 7
f 71/106/168 70/105/167 73/117/187 74/118/188
s 12
f 64/109/189 71/106/190 74/118/191 75/110/192
s 8
f 73/117/186 72/116/185 80/119/193 81/120/194
s 7
f 74/118/188 73/117/187 81/120/195 82/121/196
s 12
f 75/110/192 74/118/191 82/121/197 83/122/198
s 11
f 76/111/176 75/110/175 83/122/199 84/123/200
s 6
f 77/112/178 76/111/177 84/123/201 85/124/202
s 5
f 78/113/180 77/112/179 85/124/203 86/125/204
s off
f 95/126/205 94/127/206 96/128/207 97/129/208
f 98/130/209 95/126/210 97/129/211 99/131/212
s 8
f 81/120/194 80/119/193 46/132/213 53/133/214
s 7
f 82/121/196 81/120/195 53/133/215 52/134/216
s 12
f 83/122/198 82/121/197 52/134/217 51/135/218
s 11
f 84/123/200 83/122/199 51/135/219 50/136/220
s 6
f 85/124/202 84/123/201 50/136/221 49/137/222
s 5
f 86/125/204 85/124/203 49/137/223 48/138/224
s off
f 87/139/225 86/125/226 48/138/227 47/140/228
f 80/141/229 87/139/230 47/140/231 46/142/232
s 13
f 57/68/233 56/70/234 88/96/235 89/95/236
s 14
f 64/109/237 65/99/238 91/98/239 90/97/240
s off
f 65/99/241 57/68/242 89/95/243 91/98/244
s 13
f 56/70/234 63/72/245 92/107/246 88/96/235
s off
f 63/72/247 71/106/248 93/108/249 92/107/250
s 14
f 71/106/251 64/109/237 90/97/240 93/108/252
s 15
f 79/114/253 78/113/254 94/127/255 95/126/256
s off
f 78/113/257 86/125/258 96/128/259 94/127/260
s 16
f 86/125/261 87/139/262 97/129/263 96/128/264
s 15
f 72/115/265 79/114/253 95/126/256 98/130/266
s 16
f 87/139/262 80/141/267 99/131/268 97/129/263
s off
f 80/141/269 72/115/270 98/130/271 99/131/272
