# This file uses centimeters as units for non-parametric coordinates.

mtllib arbol_2.mtl
g default
v 1.119884 3.293468 -4.780410
v 1.759403 4.524993 -4.530208
v 1.314200 4.402890 -6.764522
v 1.879497 5.210653 -5.756456
v 0.844733 3.218004 -6.161292
v -0.230290 4.524178 -3.413786
v -0.109814 3.292965 -4.090423
v 0.924950 5.285613 -3.685587
v -1.785098 5.087232 -6.184362
v -1.145578 6.318756 -5.934160
v -1.339894 5.209335 -3.950048
v -1.905191 4.401572 -4.958114
v -0.870427 6.394220 -4.553278
v 0.204595 5.088047 -7.300784
v 0.084119 6.319260 -6.624147
v -0.950645 4.326612 -7.028982
v -1.144960 3.217190 -5.044870
v 0.529323 6.441363 -4.389832
v 1.119266 6.395035 -5.669700
v -0.555018 3.170862 -6.324737
v 0.281537 0.163357 -5.600966
v -0.001529 0.163357 -5.718215
v -0.284596 0.163357 -5.600966
v -0.401846 0.163357 -5.317899
v -0.284596 0.163357 -5.034832
v -0.001529 0.163357 -4.917582
v 0.281537 0.163357 -5.034832
v 0.398787 0.163357 -5.317899
v 0.141806 3.120535 -5.537799
v -0.001529 3.120535 -5.597171
v -0.144864 3.120535 -5.537799
v -0.204236 3.120535 -5.394464
v -0.144864 3.120535 -5.251129
v -0.001529 3.120535 -5.191758
v 0.141806 3.120535 -5.251129
v 0.201177 3.120535 -5.394464
v -0.001529 0.163357 -5.317899
v 0.215363 0.820953 -5.557319
v -0.001529 0.820953 -5.647159
v -0.218422 0.820953 -5.557319
v -0.308262 0.820953 -5.340426
v -0.218422 0.820953 -5.123534
v -0.001529 0.820953 -5.033694
v 0.215363 0.820953 -5.123534
v 0.305203 0.820953 -5.340426
v 0.229211 1.813900 -5.330699
v 0.161629 1.813900 -5.167540
v -0.001529 1.813900 -5.099958
v -0.164688 1.813900 -5.167540
v -0.232270 1.813900 -5.330699
v -0.164688 1.813900 -5.493857
v -0.001529 1.813900 -5.561440
v 0.161629 1.813900 -5.493857
v 0.141806 3.894424 -5.500794
v -0.001529 3.894424 -5.560165
v -0.001529 3.894424 -5.280893
v -0.144864 3.894424 -5.500793
v -0.204236 3.894424 -5.357459
v -0.144864 3.894424 -5.214125
v -0.001529 3.894424 -5.154751
v 0.141806 3.894424 -5.214123
v 0.201177 3.894424 -5.357459
vt 0.099106 0.250000
vt 0.221609 0.250000
vt 0.259464 0.368034
vt 0.160357 0.440983
vt 0.061251 0.368034
vt 0.037855 0.440983
vt 0.198213 0.559017
vt 0.099106 0.631966
vt 0.000000 0.559017
vt 0.320715 0.559017
vt 0.358570 0.677051
vt 0.259464 0.750000
vt 0.160357 0.677051
vt 0.358570 0.440983
vt 0.481072 0.440983
vt 0.518928 0.559017
vt 0.419821 0.631966
vt 0.297319 0.250000
vt 0.419821 0.250000
vt 0.457677 0.368034
vt 0.740536 0.250000
vt 0.839643 0.322949
vt 0.801787 0.440983
vt 0.679285 0.440983
vt 0.641430 0.322949
vt 0.580179 0.368034
vt 0.641430 0.559017
vt 0.740536 0.631966
vt 0.702681 0.750000
vt 0.580179 0.750000
vt 0.542323 0.631966
vt 0.839643 0.559017
vt 0.938749 0.631966
vt 0.900894 0.750000
vt 0.778391 0.750000
vt 0.900894 0.368034
vt 1.000000 0.440983
vt 0.962145 0.559017
vt 0.375000 0.396099
vt 0.406250 0.396099
vt 0.406250 0.522330
vt 0.375000 0.522330
vt 0.437500 0.396099
vt 0.437500 0.522330
vt 0.468750 0.396099
vt 0.468750 0.522330
vt 0.500000 0.396099
vt 0.500000 0.522330
vt 0.531250 0.396099
vt 0.531250 0.522330
vt 0.562500 0.396099
vt 0.562500 0.522330
vt 0.593750 0.396099
vt 0.593750 0.522330
vt 0.625000 0.396099
vt 0.625000 0.522330
vt 0.500000 0.000000
vt 0.610485 0.045765
vt 0.500000 0.150000
vt 0.389515 0.045765
vt 0.343750 0.156250
vt 0.389515 0.266735
vt 0.500000 0.312500
vt 0.610485 0.266735
vt 0.656250 0.156250
vt 0.610485 0.954235
vt 0.500000 1.000000
vt 0.500000 0.837500
vt 0.389515 0.954235
vt 0.343750 0.843750
vt 0.389515 0.733265
vt 0.500000 0.687500
vt 0.610485 0.733265
vt 0.656250 0.843750
vt 0.375000 0.312500
vt 0.406250 0.312500
vt 0.437500 0.312500
vt 0.468750 0.312500
vt 0.500000 0.312500
vt 0.531250 0.312500
vt 0.562500 0.312500
vt 0.593750 0.312500
vt 0.625000 0.312500
vt 0.593750 0.688440
vt 0.562500 0.688440
vt 0.531250 0.688440
vt 0.500000 0.688440
vt 0.468750 0.688440
vt 0.437500 0.688440
vt 0.406250 0.688440
vt 0.375000 0.688440
vt 0.625000 0.688440
vt 0.610485 0.954235
vt 0.500000 1.000000
vt 0.389515 0.954235
vt 0.343750 0.843750
vt 0.389515 0.733265
vt 0.500000 0.687500
vt 0.610485 0.733265
vt 0.656250 0.843750
vn 0.573290 -0.765569 0.291964
vn 0.434032 -0.803762 -0.406918
vn 0.671636 -0.204076 -0.712221
vn 0.957740 0.204743 -0.202026
vn 0.896959 -0.142278 0.418595
vn 0.474632 0.242682 0.846068
vn -0.110050 -0.142691 0.983630
vn -0.049076 -0.765824 0.641175
vn -0.572977 -0.804174 0.158117
vn -0.274400 -0.827622 -0.489640
vn -0.671636 0.204076 0.712221
vn -0.957740 -0.204743 0.202026
vn -0.896959 0.142278 -0.418595
vn -0.474631 -0.242682 -0.846068
vn 0.110050 0.142691 -0.983630
vn 0.049076 0.765824 -0.641175
vn 0.572977 0.804174 -0.158117
vn 0.274400 0.827621 0.489640
vn -0.434032 0.803762 0.406918
vn -0.573290 0.765569 -0.291964
vn 0.381162 0.089039 -0.920211
vn 0.381164 0.088983 -0.920215
vn 0.382554 0.026048 -0.923566
vn 0.382548 0.026552 -0.923554
vn -0.381164 0.088983 -0.920215
vn -0.381162 0.089039 -0.920211
vn -0.382548 0.026552 -0.923554
vn -0.382554 0.026048 -0.923566
vn -0.919711 0.094897 -0.380955
vn -0.919685 0.095187 -0.380945
vn -0.923228 0.037551 -0.382413
vn -0.923257 0.036703 -0.382425
vn -0.918937 0.103299 0.380637
vn -0.918888 0.103808 0.380616
vn -0.922602 0.052568 0.382154
vn -0.922618 0.052239 0.382161
vn -0.380386 0.109424 0.918332
vn -0.380374 0.109698 0.918304
vn -0.381919 0.063177 0.922034
vn -0.381919 0.063192 0.922033
vn 0.380374 0.109698 0.918304
vn 0.380386 0.109424 0.918332
vn 0.381919 0.063192 0.922033
vn 0.381919 0.063177 0.922034
vn 0.918888 0.103808 0.380617
vn 0.918937 0.103299 0.380637
vn 0.922618 0.052239 0.382161
vn 0.922602 0.052568 0.382154
vn 0.919685 0.095187 -0.380945
vn 0.919711 0.094897 -0.380955
vn 0.923257 0.036703 -0.382425
vn 0.923228 0.037551 -0.382413
vn 0.000000 -1.000000 0.000000
vn 0.000000 -1.000000 0.000000
vn 0.000000 -1.000000 -0.000000
vn 0.000000 -1.000000 0.000000
vn 0.000000 -1.000000 0.000000
vn 0.000000 -1.000000 0.000000
vn 0.000000 -1.000000 0.000000
vn 0.000000 -1.000000 -0.000000
vn 0.000000 -1.000000 -0.000000
vn 0.000000 1.000000 0.000000
vn 0.000000 1.000000 0.000000
vn 0.000000 1.000000 0.000000
vn 0.000000 1.000000 0.000000
vn 0.000000 1.000000 0.000000
vn 0.000000 1.000000 0.000000
vn 0.000000 1.000000 0.000001
vn 0.000000 1.000000 0.000000
vn 0.000000 1.000000 0.000000
vn 0.380789 0.099337 -0.919311
vn 0.380789 0.099337 -0.919311
vn -0.380789 0.099337 -0.919311
vn -0.380789 0.099337 -0.919311
vn -0.917475 0.117550 -0.380029
vn -0.917475 0.117550 -0.380029
vn -0.914371 0.143102 0.378746
vn -0.914371 0.143102 0.378746
vn -0.377692 0.161001 0.911827
vn -0.377692 0.161001 0.911827
vn 0.377692 0.161001 0.911827
vn 0.377692 0.161001 0.911827
vn 0.914371 0.143102 0.378746
vn 0.914371 0.143102 0.378746
vn 0.917475 0.117549 -0.380029
vn 0.917475 0.117549 -0.380029
vn 0.923725 0.018310 0.382618
vn 0.923725 0.018320 0.382618
vn 0.382553 0.026137 0.923564
vn 0.382553 0.026146 0.923564
vn -0.382556 0.026146 0.923563
vn -0.382556 0.026138 0.923563
vn -0.923724 0.018320 0.382620
vn -0.923725 0.018310 0.382620
vn -0.923855 0.007239 -0.382674
vn -0.923855 0.007243 -0.382674
vn -0.382686 -0.000595 -0.923878
vn -0.382686 -0.000589 -0.923878
vn 0.382686 -0.000589 -0.923878
vn 0.382686 -0.000595 -0.923878
vn 0.923855 0.007242 -0.382674
vn 0.923855 0.007239 -0.382674
vn 0.382314 0.044134 -0.922978
vn 0.382314 0.044134 -0.922978
vn -0.382314 0.044135 -0.922978
vn -0.382314 0.044135 -0.922978
vn -0.923724 0.018296 -0.382621
vn -0.923724 0.018296 -0.382621
vn -0.923724 -0.018295 0.382621
vn -0.923724 -0.018295 0.382621
vn -0.382319 -0.044134 0.922976
vn -0.382319 -0.044134 0.922976
vn 0.382311 -0.044136 0.922979
vn 0.382311 -0.044136 0.922979
vn 0.923726 -0.018296 0.382617
vn 0.923726 -0.018296 0.382617
vn 0.923724 0.018296 -0.382621
vn 0.923724 0.018296 -0.382621
s 1
g arbol_2
usemtl blinn2SG
f 1/7/1 5/8/2 3/9/3 4/6/4 2/4/5
f 8/3/6 6/14/7 7/10/8 1/7/1 2/4/5
f 1/7/1 7/10/8 17/11/9 20/12/10 5/13/2
f 6/14/7 11/15/11 12/16/12 17/17/9 7/10/8
f 17/30/9 12/31/12 9/27/13 16/28/14 20/29/10
f 5/34/2 20/35/10 16/28/14 14/32/15 3/33/3
f 3/38/3 14/32/15 15/23/16 19/36/17 4/37/4
f 2/4/5 4/5/4 19/1/17 18/2/18 8/3/6
f 8/3/6 18/18/18 13/19/19 11/20/11 6/14/7
f 9/27/13 12/16/12 11/15/11 13/26/19 10/24/20
f 10/24/20 13/25/19 18/21/18 19/22/17 15/23/16
f 10/24/20 15/23/16 14/32/15 16/28/14 9/27/13
s 2
usemtl blinn1SG
f 38/39/21 39/40/22 52/41/23 53/42/24
s 3
f 39/40/25 40/43/26 51/44/27 52/41/28
s 4
f 40/43/29 41/45/30 50/46/31 51/44/32
s 5
f 41/45/33 42/47/34 49/48/35 50/46/36
s 6
f 42/47/37 43/49/38 48/50/39 49/48/40
s 7
f 43/49/41 44/51/42 47/52/43 48/50/44
s 8
f 44/51/45 45/53/46 46/54/47 47/52/48
s 9
f 45/53/49 38/55/50 53/56/51 46/54/52
s 10
f 22/57/53 21/58/54 37/59/55
f 23/60/56 22/57/53 37/59/55
f 24/61/57 23/60/56 37/59/55
f 25/62/58 24/61/57 37/59/55
f 26/63/59 25/62/58 37/59/55
f 27/64/60 26/63/59 37/59/55
f 28/65/61 27/64/60 37/59/55
f 21/58/54 28/65/61 37/59/55
s 11
f 54/66/62 55/67/63 56/68/64
f 55/67/63 57/69/65 56/68/64
f 57/69/65 58/70/66 56/68/64
f 58/70/66 59/71/67 56/68/64
f 59/71/67 60/72/68 56/68/64
f 60/72/68 61/73/69 56/68/64
f 61/73/69 62/74/70 56/68/64
f 62/74/70 54/66/62 56/68/64
s 2
f 21/75/71 22/76/72 39/40/22 38/39/21
s 3
f 22/76/73 23/77/74 40/43/26 39/40/25
s 4
f 23/77/75 24/78/76 41/45/30 40/43/29
s 5
f 24/78/77 25/79/78 42/47/34 41/45/33
s 6
f 25/79/79 26/80/80 43/49/38 42/47/37
s 7
f 26/80/81 27/81/82 44/51/42 43/49/41
s 8
f 27/81/83 28/82/84 45/53/46 44/51/45
s 9
f 28/82/85 21/83/86 38/55/50 45/53/49
s 8
f 47/52/48 46/54/47 36/84/87 35/85/88
s 7
f 48/50/44 47/52/43 35/85/89 34/86/90
s 6
f 49/48/40 48/50/39 34/86/91 33/87/92
s 5
f 50/46/36 49/48/35 33/87/93 32/88/94
s 4
f 51/44/32 50/46/31 32/88/95 31/89/96
s 3
f 52/41/28 51/44/27 31/89/97 30/90/98
s 2
f 53/42/24 52/41/23 30/90/99 29/91/100
s 9
f 46/54/52 53/56/51 29/92/101 36/84/102
s 2
f 29/93/100 30/94/99 55/67/103 54/66/104
s 3
f 30/94/98 31/95/97 57/69/105 55/67/106
s 4
f 31/95/96 32/96/95 58/70/107 57/69/108
s 5
f 32/96/94 33/97/93 59/71/109 58/70/110
s 6
f 33/97/92 34/98/91 60/72/111 59/71/112
s 7
f 34/98/90 35/99/89 61/73/113 60/72/114
s 8
f 35/99/88 36/100/87 62/74/115 61/73/116
s 9
f 36/100/102 29/93/101 54/66/117 62/74/118
